<svg aria-hidden="true" style="position:absolute;width:0;height:0" xmlns="http://www.w3.org/2000/svg" overflow="hidden"><defs>
<symbol id="search" viewBox="0 0 32 32"><path fill="none" stroke="var(--color1, #fff)" stroke-linejoin="round" stroke-linecap="round" stroke-width="2.667" d="M14.667 25.333c5.891 0 10.667-4.776 10.667-10.667S20.558 3.999 14.667 3.999 4 8.775 4 14.666s4.776 10.667 10.667 10.667zM28 28.001l-5.8-5.8"/></symbol>
<symbol id="heart" viewBox="0 0 32 32"><path fill="var(--color2, #ff6b08)" d="M16 30.583l-2.24-2.24C5.44 20.983 0 16.023 0 9.943c0-4.96 3.84-8.8 8.8-8.8 2.72 0 5.44 1.28 7.2 3.36 1.76-2.08 4.48-3.36 7.2-3.36 4.96 0 8.8 3.84 8.8 8.8 0 6.08-5.44 11.04-13.76 18.4L16 30.583z"/></symbol>
<symbol id="film" viewBox="0 0 32 32"><path fill="none" stroke="var(--color3, #818181)" stroke-linejoin="round" stroke-linecap="round" stroke-width="2.667" d="M26.427 2.667H5.574a2.907 2.907 0 00-2.907 2.907v20.853a2.907 2.907 0 002.907 2.907h20.853a2.907 2.907 0 002.907-2.907V5.574a2.907 2.907 0 00-2.907-2.907zm-17.094 0v26.667M22.667 2.667v26.667M2.667 16h26.667M2.667 9.333h6.667M2.667 22.667h6.667m13.333 0h6.667M22.667 9.333h6.667"/></symbol>
<symbol id="close1" viewBox="0 0 32 32"><path fill="var(--color5, #ff6b08)" d="M32 3.223L28.777 0 16 12.777 3.223 0 0 3.223 12.777 16 0 28.777 3.223 32 16 19.223 28.777 32 32 28.777 19.223 16 32 3.223z"/></symbol>
<symbol id="microphone" viewBox="0 0 32 32"><path d="M16.4 25.936v2.993c2.992.161 5.305 1.151 5.305 2.075 0 .023-12.268.023-12.268 0 0-.889 2.142-1.849 4.973-2.062v-3.018c-3.614-.518-6.402-3.597-6.402-7.354v-1.555h.995v1.555a6.466 6.466 0 006.464 6.466h.004a6.466 6.466 0 006.464-6.466v-1.555h1.058v1.555c-.001 3.801-2.917 6.903-6.593 7.366zm-.9-1.981a5.493 5.493 0 01-5.494-5.494v-2.477h4.495v-.999h-4.495v-.999h4.495v-.998h-4.495v-.999h4.495v-.999h-4.495v-.999h4.495v-.999h-4.495V7.41c0-3.034 2.459-5.432 5.494-5.432 3.034 0 5.494 2.397 5.494 5.432v1.582h-4.496v.999h4.496v.999h-4.496v.999h4.496v.999h-4.496v.998h4.496v.999h-4.496v.999h4.496v2.477a5.494 5.494 0 01-5.494 5.494z"/></symbol>
</defs></svg>